<svg id="Layer_2" data-name="Layer 2" xmlns="http://www.w3.org/2000/svg" xmlns:xlink="http://www.w3.org/1999/xlink" width="197.106" height="59" viewBox="0 0 197.106 59">
  <defs>
    <linearGradient id="linear-gradient" y1="0.5" x2="1" y2="0.5" gradientUnits="objectBoundingBox">
      <stop offset="0" stop-color="#0098e9"/>
      <stop offset="1" stop-color="#004f8f"/>
    </linearGradient>
    <linearGradient id="linear-gradient-2" x1="0" x2="1" xlink:href="#linear-gradient"/>
    <linearGradient id="linear-gradient-3" x1="0" x2="1.001" xlink:href="#linear-gradient"/>
    <linearGradient id="linear-gradient-4" x1="0" x2="1.001" xlink:href="#linear-gradient"/>
    <linearGradient id="linear-gradient-5" x1="0" x2="1" xlink:href="#linear-gradient"/>
    <linearGradient id="linear-gradient-6" x1="0" x2="1.002" xlink:href="#linear-gradient"/>
    <linearGradient id="linear-gradient-7" x1="0" y1="0.502" x2="1" y2="0.502" xlink:href="#linear-gradient"/>
    <linearGradient id="linear-gradient-8" x1="0.005" x2="1" xlink:href="#linear-gradient"/>
  </defs>
  <g id="Layer_1" data-name="Layer 1">
    <path id="Path_39440" data-name="Path 39440" d="M324.447,72.46a3.428,3.428,0,0,1-3.387-3.43,3.391,3.391,0,0,1,3.387-3.389,3.428,3.428,0,0,1,3.43,3.389A3.465,3.465,0,0,1,324.447,72.46Zm4.125,25.321c-4.519,0-6.984-2.564-6.984-7.3V74.631h1.643c2.6,0,4.17,1.391,4.17,4.344V89.919c0,2.344,1,3.081,3.56,3.081h1.087v1.265C332.047,96.78,331.049,97.781,328.572,97.781Z" transform="translate(-255.111 -52.157)" fill="#191919"/>
    <path id="Path_39441" data-name="Path 39441" d="M409.5,128.313c-2.6,0-4.256-1.643-4.256-3.823V115.2c0-3.952-1.736-5.69-4.724-5.69-2.52,0-4.256,1.91-4.256,5.254V128.32h-1.738a3.794,3.794,0,0,1-4.084-3.823V114.372c0-4.952,3.258-10.032,10.554-10.032,5.517,0,10.077,3.7,10.077,10.336v13.637Z" transform="translate(-310.24 -82.907)" fill="#191919"/>
    <path id="Path_39442" data-name="Path 39442" d="M529.619,105.59H526.4c-5.558,0-8.294-2.432-8.294-7.078V76.927a30.646,30.646,0,0,1,7.861-1.347h3.6c5.69,0,9.728,3,9.728,7.861a6.131,6.131,0,0,1-4.724,6.3,7.394,7.394,0,0,1,5.256,6.514C539.826,102.246,535.048,105.59,529.619,105.59Zm-.869-25.06h-2.214a18.777,18.777,0,0,0-2.564.3v6.733h4.56c2.65,0,4.821-1.043,4.821-3.6C533.353,81.356,530.965,80.53,528.75,80.53Zm0,11.641h-4.724v6.123c0,1.044,1.13,1.867,2.607,1.867h2.432c3.215,0,4.778-1.477,4.778-3.734C533.832,93.212,532.226,92.171,528.75,92.171Z" transform="translate(-411.685 -60.055)" fill="url(#linear-gradient)"/>
    <path id="Path_39443" data-name="Path 39443" d="M650.677,72.46a3.428,3.428,0,0,1-3.387-3.43,3.392,3.392,0,0,1,3.387-3.389,3.43,3.43,0,0,1,3.432,3.389A3.467,3.467,0,0,1,650.677,72.46ZM654.8,97.781c-4.519,0-6.984-2.564-6.984-7.3V74.631h1.643c2.607,0,4.17,1.391,4.17,4.344V89.919c0,2.344,1,3.081,3.562,3.081h1.086v1.265C658.279,96.78,657.279,97.781,654.8,97.781Z" transform="translate(-514.33 -52.157)" fill="url(#linear-gradient-2)"/>
    <path id="Path_39444" data-name="Path 39444" d="M725.125,100.3c-4.819,0-7.425-2.564-7.425-7.3V68.81h1.643c2.911,0,4.17,1.695,4.17,3.9V92.432c0,2.344,1.216,3.081,3.952,3.081h1.563v1.271C729.034,99.3,727.689,100.3,725.125,100.3Z" transform="translate(-570.277 -54.676)" fill="url(#linear-gradient-3)"/>
    <path id="Path_39445" data-name="Path 39445" d="M794.048,100.3c-4.821,0-7.428-2.564-7.428-7.3V68.81h1.643c2.909,0,4.17,1.695,4.17,3.9V92.432c0,2.344,1.216,3.081,3.952,3.081h1.563v1.271C797.957,99.3,796.609,100.3,794.048,100.3Z" transform="translate(-625.04 -54.676)" fill="url(#linear-gradient-4)"/>
    <path id="Path_39446" data-name="Path 39446" d="M860.805,104.34c7.035,0,11.074,5.645,11.074,11.856,0,7.035-4.038,12.639-11.6,12.639-7.036,0-11.074-5.6-11.074-11.813C849.21,109.985,853.248,104.34,860.805,104.34Zm-.522,5.211c-3.344,0-5.037,2.779-5.037,6.645,0,4.646,1.692,7.426,5.558,7.426,3.387,0,5.039-2.779,5.039-6.6C865.844,112.33,864.106,109.551,860.284,109.551Z" transform="translate(-674.773 -82.907)" fill="url(#linear-gradient-5)"/>
    <path id="Path_39447" data-name="Path 39447" d="M29.5,59a29.5,29.5,0,1,1,0-59,1.995,1.995,0,0,1,0,3.987,25.513,25.513,0,1,0,0,51.027A1.995,1.995,0,0,1,29.5,59Z" fill="url(#linear-gradient-6)"/>
    <path id="Path_39448" data-name="Path 39448" d="M61.281,156.892A21.315,21.315,0,0,1,40,135.6a1.995,1.995,0,1,1,3.987,0,17.305,17.305,0,1,0,34.611,0,1.995,1.995,0,1,1,3.986,0A21.315,21.315,0,0,1,61.281,156.892Z" transform="translate(-31.78 -106.1)" fill="url(#linear-gradient-7)"/>
    <path id="Path_39449" data-name="Path 39449" d="M135.6,105.5a1.995,1.995,0,1,1,0-3.987,9.3,9.3,0,1,0,0-18.6,1.995,1.995,0,1,1,0-3.986,13.285,13.285,0,1,1,0,26.571Z" transform="translate(-106.1 -62.719)" fill="url(#linear-gradient-8)"/>
    <path id="Path_39450" data-name="Path 39450" d="M324.447,72.46a3.428,3.428,0,0,1-3.387-3.43,3.391,3.391,0,0,1,3.387-3.389,3.428,3.428,0,0,1,3.43,3.389A3.465,3.465,0,0,1,324.447,72.46Z" transform="translate(-255.111 -52.157)" fill="url(#linear-gradient-5)"/>
    <path id="Path_39451" data-name="Path 39451" d="M650.677,72.46a3.428,3.428,0,0,1-3.387-3.43,3.392,3.392,0,0,1,3.387-3.389,3.43,3.43,0,0,1,3.432,3.389A3.467,3.467,0,0,1,650.677,72.46Z" transform="translate(-514.33 -52.157)" fill="#191919"/>
  </g>
</svg>
